<?xml version="1.0" encoding="utf-8"?>
<!-- Generator: Adobe Illustrator 22.0.0, SVG Export Plug-In . SVG Version: 6.00 Build 0)  -->
<svg version="1.1" id="Слой_1" xmlns="http://www.w3.org/2000/svg" xmlns:xlink="http://www.w3.org/1999/xlink" x="0px" y="0px"
	 viewBox="0 0 2281.0505371 682.1196289" style="enable-background:new 0 0 2281.0505371 682.1196289;" xml:space="preserve">
<path style="fill:#CCCCCC;" d="M2281.0505371,27.5382977c0,0-171.4885254,81.5-345.4998779,81.5c-112,0-167.5-45.5000038-326.5-42.5
	c-159,3-176.3803711,56.9039841-278.5,53.5c-120-4-181-50-334.000061-50s-222-67-354-70s-269.7433472,74.9028625-362.9999695,76
	c-170,2-279-48-279-48l0.4999999,575.5c0,0,141-45,312-45s362.4999695,78.5,491.4999695,87.5s336.000061-81,498.000061-81
	s300.4713135,116.2611084,456.5,116.5c326.4998779,0.5,521.9998779-78,521.9998779-78V27.5382977z"/>
</svg>
