<?xml version="1.0" encoding="utf-8"?>
<!-- Generator: Adobe Illustrator 22.0.0, SVG Export Plug-In . SVG Version: 6.00 Build 0)  -->
<svg version="1.1" id="Слой_1" xmlns="http://www.w3.org/2000/svg" xmlns:xlink="http://www.w3.org/1999/xlink" x="0px" y="0px"
	 viewBox="0 0 2281.0505371 682.1196289" style="enable-background:new 0 0 2281.0505371 682.1196289;" xml:space="preserve">
<path style="fill:#CCCCCC;" d="M0.5506276,27.5382977c0,0,161.9885101-27,336-27c112,0,176.9999695,63,335.9999695,66
	c159,3,158.8804321-29.5960159,261-33.0000038c120.000061-3.9999981,219.000061,69,372.000061,69s252-78,384-81s219,61,312,54
	c92.9998779-7,278.9998779-48,278.9998779-48v576c0,0-141-45-311.9998779-45s-309,60-438,69s-393-51-555.000061-51s-297,102-453,105
	s-522-78-522-78V27.5382977z"/>
</svg>
